<?xml version="1.0" standalone="no"?>
<!DOCTYPE svg PUBLIC "-//W3C//DTD SVG 20010904//EN"
 "http://www.w3.org/TR/2001/REC-SVG-20010904/DTD/svg10.dtd">
<svg version="1.0" xmlns="http://www.w3.org/2000/svg"
 width="512.000000pt" height="512.000000pt" viewBox="0 0 512.000000 512.000000"
 preserveAspectRatio="xMidYMid meet">
<metadata>
Created by potrace 1.11, written by Peter Selinger 2001-2013
</metadata>
<g transform="translate(0.000000,512.000000) scale(0.100000,-0.100000)"
fill="#000000" stroke="none">
<path d="M1019 4532 c-88 -139 -108 -319 -53 -470 16 -44 77 -155 94 -172 3
-3 21 -26 40 -52 19 -26 117 -129 217 -230 l182 -183 -149 -150 c-83 -82 -170
-177 -195 -210 -43 -56 -111 -182 -120 -222 -24 -98 -33 -155 -33 -206 1 -182
157 -449 431 -737 l98 -104 -129 -130 c-71 -72 -134 -138 -141 -146 -6 -8 -22
-27 -36 -42 -118 -134 -239 -383 -261 -538 -2 -14 -8 -49 -13 -79 -5 -30 -8
-86 -7 -125 l1 -71 50 2 c79 4 1980 4 2619 1 424 -3 583 0 594 8 14 10 16 76
18 570 1 308 -2 566 -7 576 -25 46 -74 -18 -94 -123 -3 -13 -7 -35 -10 -49 -3
-14 -7 -36 -10 -50 -3 -14 -7 -36 -10 -50 -10 -48 -18 -105 -19 -127 0 -28 -7
-29 -24 -3 -16 26 -50 26 -78 -1 l-22 -21 -6 49 c-13 103 -20 175 -30 323 -12
164 -16 193 -32 226 -13 26 -22 34 -44 34 -34 0 -58 -26 -75 -84 -13 -43 -27
-115 -28 -144 -1 -23 -14 3 -25 49 -28 114 -63 160 -110 145 -43 -14 -77 -135
-108 -391 -7 -61 -11 -98 -13 -124 -1 -12 -4 -12 -13 -3 -19 19 -63 14 -86
-11 -11 -12 -29 -44 -40 -71 -17 -44 -20 -48 -30 -30 -5 10 -10 24 -10 29 -1
6 -11 31 -23 57 -25 54 -65 76 -96 53 -26 -21 -29 -19 -31 24 -2 32 -25 174
-36 216 -28 115 -75 157 -122 110 -13 -13 -24 -31 -24 -40 0 -8 -4 -15 -8 -15
-4 0 -9 19 -10 42 -5 90 -17 159 -47 273 -23 91 -36 116 -62 126 -66 25 -131
-77 -147 -231 -2 -25 -7 -72 -11 -105 -3 -33 -8 -80 -10 -105 -7 -70 -16 -162
-20 -200 -2 -19 -7 -66 -10 -105 -8 -89 -13 -108 -31 -101 -24 9 -75 -16 -94
-46 l-18 -29 -7 38 c-9 48 -11 86 -30 478 -4 102 -6 115 -25 196 -14 57 -41
89 -70 82 -11 -3 -25 -13 -30 -22 -23 -39 -41 -54 -71 -57 -69 -8 -106 -58
-129 -174 -6 -36 -14 -74 -16 -85 -4 -23 -14 -115 -17 -162 -2 -37 -4 -39 -26
-19 -15 13 -40 20 -69 17 -7 0 -24 -13 -38 -28 -25 -27 -26 -27 -40 -8 -18 25
-25 33 -106 130 -37 44 -67 85 -67 90 1 6 26 37 57 71 86 92 149 173 215 276
50 79 70 121 101 211 35 103 38 121 42 260 3 139 -13 207 -76 324 -63 116
-253 360 -362 465 -15 14 -28 28 -28 31 0 3 64 70 143 149 167 167 184 187
241 276 86 133 120 246 120 397 1 109 -33 274 -61 296 -15 13 -60 15 -731 23
l-374 4 -29 -46z m196 -160 c0 -34 -4 -53 -13 -57 -24 -9 -2 -23 31 -20 17 2
33 4 34 4 1 1 -4 12 -11 25 -8 15 -10 42 -7 68 6 44 6 44 65 39 10 -1 12 -12
9 -43 -7 -78 35 -120 78 -77 18 18 21 30 17 69 -4 40 -2 49 12 53 28 7 36 -5
34 -47 -1 -22 2 -50 6 -62 12 -29 48 -41 67 -21 19 18 33 91 22 109 -5 8 -2
15 9 19 29 11 37 0 34 -44 -5 -73 31 -114 73 -83 15 10 19 26 20 72 0 55 2 58
25 58 23 0 24 -3 21 -47 -5 -86 51 -131 84 -67 10 19 14 45 11 70 -3 27 -1 41
7 42 36 4 43 4 57 -3 19 -9 20 -90 2 -112 -19 -23 -4 -27 63 -18 5 0 4 6 -3
13 -7 7 -12 38 -12 69 l0 56 35 -1 c33 -1 34 -2 33 -42 -1 -91 36 -131 79 -84
18 19 19 18 19 -18 0 -36 -1 -38 -28 -34 -21 3 -28 0 -28 -12 0 -9 4 -16 9
-16 12 0 12 -92 0 -107 -6 -6 -9 -17 -8 -25 4 -29 -2 -39 -28 -49 -18 -6 -23
-13 -16 -17 13 -8 6 -52 -7 -52 -4 0 -13 -14 -21 -31 -7 -17 -31 -50 -54 -73
-23 -22 -45 -51 -49 -62 -8 -27 -49 -67 -45 -44 1 8 -1 30 -5 48 -10 42 -51
55 -76 24 -22 -27 -19 -117 4 -140 15 -15 13 -19 -21 -48 -35 -30 -39 -31 -55
-17 -38 34 -85 -6 -80 -69 0 -10 -3 -18 -9 -18 -16 0 -51 41 -58 69 -5 18 -15
26 -30 27 -20 1 -39 15 -99 72 -15 14 -23 32 -22 50 5 77 1 92 -25 90 -25 -2
-34 -21 -15 -33 6 -3 10 -17 10 -31 0 -24 -1 -24 -42 13 -135 123 -140 130
-145 175 -6 51 -26 78 -54 71 -12 -4 -25 1 -33 13 -12 16 -11 22 5 43 19 24
27 105 11 126 -20 27 -42 37 -56 26 -21 -17 -25 -1 -12 44 11 35 13 37 20 18
10 -32 44 -39 68 -15 14 14 20 33 20 68 0 27 1 52 4 55 2 4 18 4 36 0 31 -6
32 -8 33 -59z m-109 22 c7 -38 -4 -80 -17 -67 -13 13 -15 40 -5 77 8 33 15 30
22 -10z m275 19 c5 -68 -2 -105 -17 -90 -8 8 -13 77 -6 95 6 18 22 15 23 -5z
m140 10 c7 -38 3 -85 -8 -94 -13 -12 -15 -6 -15 36 0 46 3 65 12 65 6 0 11 -3
11 -7z m140 -15 c3 -43 0 -71 -9 -80 -16 -16 -23 38 -13 95 3 17 21 5 22 -15z
m140 0 c0 -13 2 -33 3 -46 2 -20 -22 -56 -25 -36 -7 45 -7 62 -3 82 2 12 9 22
14 22 6 0 10 -10 11 -22z m279 -54 c-5 -12 -6 -25 -3 -28 4 -3 2 -6 -4 -6 -6
0 -14 7 -17 16 -8 22 -8 79 1 88 13 13 32 -46 23 -70z m-1009 -131 c5 -42 5
-71 -1 -88 -7 -19 -7 -19 -17 0 -8 15 -10 74 -4 93 2 6 21 1 22 -5z m69 -214
c0 -6 -4 -7 -10 -4 -5 3 -10 11 -10 16 0 6 5 7 10 4 6 -3 10 -11 10 -16z m664
-201 c7 -34 2 -78 -9 -79 -13 0 -22 39 -17 73 5 34 20 37 26 6z m-134 -207 c0
-20 -17 -37 -27 -28 -7 8 7 47 18 47 5 0 9 -9 9 -19z m-46 -288 c4 -9 1 -22
-5 -29 -6 -7 -11 -35 -11 -61 0 -89 74 -109 88 -24 6 38 7 38 25 20 10 -10 19
-25 19 -32 0 -8 9 -22 20 -32 11 -10 20 -14 20 -9 0 12 89 -88 91 -101 0 -5 2
-24 3 -42 3 -42 24 -66 53 -60 19 4 29 -5 58 -53 36 -60 44 -97 23 -118 -7 -7
-10 -12 -7 -13 2 0 17 -3 34 -5 35 -6 31 -3 40 -33 5 -16 4 -21 -4 -17 -6 4
-11 1 -11 -8 0 -8 4 -17 8 -20 5 -3 9 -28 9 -56 1 -28 -3 -48 -8 -45 -5 4 -9
-1 -9 -9 0 -9 7 -16 15 -16 16 0 19 -9 9 -34 -3 -8 -12 -12 -20 -9 -8 3 -21 2
-29 -1 -14 -5 -14 -8 -1 -28 12 -19 12 -29 2 -59 -7 -20 -18 -43 -25 -50 -42
-50 -61 -75 -61 -82 0 -5 -9 -2 -21 6 -44 31 -73 -1 -71 -76 2 -52 -43 -118
-74 -111 -26 7 -43 -13 -20 -22 14 -5 13 -9 -3 -33 -42 -57 -67 -80 -80 -72
-6 4 -11 12 -10 17 1 5 1 33 0 62 -1 44 -4 52 -20 52 -23 0 -36 -16 -21 -25
13 -8 13 -102 0 -110 -21 -13 -9 -24 21 -21 l30 4 -22 -24 -23 -24 -36 35
c-31 30 -36 41 -33 73 4 53 -14 92 -43 92 -14 0 -28 -9 -35 -22 -11 -21 -12
-21 -45 14 -23 25 -31 42 -27 57 3 11 1 21 -3 21 -5 0 -9 27 -9 60 1 33 -1 60
-4 61 -3 0 -14 2 -23 4 -22 4 -33 -11 -16 -22 13 -8 20 -93 9 -93 -8 0 -25 20
-66 75 -17 22 -36 46 -43 53 -13 15 -7 36 9 27 5 -4 9 1 9 9 0 9 -4 16 -9 16
-6 0 -10 21 -9 48 0 91 0 92 -27 90 -26 -2 -32 -17 -14 -35 5 -5 9 -30 7 -54
l-3 -44 -48 83 c-45 78 -48 86 -36 114 22 54 4 146 -27 134 -8 -3 -12 3 -11
15 1 13 14 26 34 34 38 16 51 44 46 100 -5 52 21 87 65 88 18 1 32 7 32 14 0
7 -5 13 -11 13 -21 0 1 52 37 88 27 27 37 32 48 23 14 -12 17 -94 3 -107 -19
-19 -6 -35 25 -31 29 3 54 27 29 27 -7 0 -11 27 -11 71 0 44 -4 68 -10 64 -5
-3 -15 -3 -21 0 -14 9 21 47 38 41 8 -3 13 2 13 14 0 17 66 90 82 90 7 0 3
-50 -7 -81 -4 -10 -2 -20 4 -20 40 -5 46 -3 43 16 -2 11 -4 42 -6 69 -2 42 1
52 27 76 31 29 51 30 61 3z m42 -84 c1 -36 -10 -67 -19 -53 -6 10 -10 49 -8
77 2 33 26 11 27 -24z m258 -244 c3 -8 1 -15 -4 -15 -6 0 -10 7 -10 15 0 8 2
15 4 15 2 0 6 -7 10 -15z m-783 -198 c-13 -13 -15 1 -4 30 7 17 8 17 11 -1 2
-10 -1 -23 -7 -29z m-21 -142 c1 -11 1 -29 0 -40 -1 -17 -4 -15 -14 9 -8 16
-11 38 -8 48 6 23 19 12 22 -17z m786 -413 c-15 -15 -16 -14 -16 9 0 33 11 44
23 23 6 -11 4 -21 -7 -32z m933 -94 c20 -70 29 -111 35 -152 4 -21 8 -41 10
-45 2 -3 7 -60 11 -126 4 -66 9 -151 12 -190 8 -112 8 -126 -2 -205 -4 -41 -9
-77 -10 -80 0 -3 -5 -30 -9 -60 -10 -71 -11 -76 -26 -130 -7 -25 -14 -56 -17
-69 -12 -69 -77 -221 -88 -209 -2 2 -6 21 -9 43 -4 23 -8 52 -11 65 -3 14 -7
39 -10 55 -3 17 -7 44 -10 60 -31 186 -32 189 -21 300 4 44 9 96 11 115 2 19
6 67 10 105 13 124 14 139 19 190 2 28 7 68 10 90 3 22 8 69 11 105 4 36 15
90 26 120 10 30 19 56 19 57 0 2 6 3 14 3 7 0 19 -19 25 -42z m-1305 -84 c8
-29 3 -39 -13 -29 -13 8 -15 55 -2 55 5 0 12 -12 15 -26z m861 -84 c8 -57 15
-174 20 -320 3 -85 8 -173 10 -195 3 -22 7 -60 10 -85 3 -25 7 -56 10 -70 14
-78 11 -121 -16 -230 -29 -116 -34 -137 -43 -178 -7 -33 -15 -42 -35 -42 -10
0 -30 -9 -45 -21 -14 -11 -26 -19 -27 -17 0 2 -3 17 -5 33 -6 41 -43 186 -53
210 -5 11 -18 43 -30 70 -12 28 -24 64 -26 80 -12 100 -19 173 -19 190 3 75
30 353 40 396 3 13 7 35 10 49 20 102 35 127 83 135 45 8 68 21 82 47 l12 22
9 -24 c6 -14 11 -36 13 -50z m1450 -51 c2 -19 7 -77 10 -129 3 -52 8 -111 10
-130 3 -19 7 -62 10 -95 6 -78 16 -165 21 -190 17 -77 15 -117 -5 -185 -23
-76 -29 -78 -48 -20 -10 31 -16 58 -38 170 -3 14 -7 41 -10 60 -2 19 -10 64
-18 100 -13 67 -14 126 -2 195 3 22 9 56 11 75 6 44 35 172 41 183 8 13 13 2
18 -34z m-211 -11 c21 -74 37 -137 42 -163 2 -16 9 -57 15 -89 9 -53 6 -173
-6 -208 -2 -7 -7 -30 -10 -52 -3 -21 -7 -41 -9 -45 -2 -3 -7 -22 -10 -41 -3
-19 -17 -75 -31 -123 -14 -49 -27 -97 -28 -108 -4 -26 -17 -36 -18 -13 0 10
-2 28 -4 39 -2 11 -7 44 -10 74 -3 30 -8 57 -10 60 -2 4 -6 26 -10 49 -3 24
-10 53 -14 64 -4 12 -4 42 0 67 4 25 10 78 14 116 12 112 13 118 19 151 3 17
8 46 10 65 4 30 15 85 31 157 3 12 9 22 14 22 5 0 12 -10 15 -22z m-585 -140
c11 -34 28 -117 36 -178 3 -19 7 -51 10 -70 18 -123 17 -138 -15 -276 -34
-143 -48 -187 -50 -149 -1 11 -3 27 -5 35 -7 31 -14 77 -20 130 -4 30 -9 66
-10 80 -18 130 -19 161 -11 215 4 22 9 56 11 75 12 88 29 170 36 170 4 0 12
-15 18 -32z m-1371 -135 c-6 -34 -28 -25 -28 12 0 33 1 35 16 21 8 -9 14 -24
12 -33z m-58 -24 c0 -9 12 -21 26 -27 22 -11 28 -9 46 11 l21 24 35 -39 c29
-32 33 -41 21 -49 -11 -7 -11 -11 -2 -17 17 -11 20 -87 5 -105 -15 -18 -5 -27
30 -27 18 0 28 5 28 15 0 8 -4 15 -10 15 -5 0 -9 21 -8 46 1 53 5 51 68 -37
107 -149 130 -189 124 -213 -4 -19 -2 -24 12 -23 35 3 92 -151 62 -169 -20
-12 -7 -34 21 -34 31 0 33 -4 67 -110 16 -52 16 -57 -13 -63 -5 -1 -8 25 -9
57 -1 45 -6 62 -19 73 -23 16 -27 16 -50 -1 -14 -10 -18 -26 -18 -69 0 -61
-12 -72 -54 -54 -19 8 -23 19 -25 70 -3 62 -11 74 -38 57 -12 -7 -12 -12 -2
-22 6 -6 12 -31 12 -54 0 -45 -10 -54 -60 -54 -27 0 -27 1 -22 45 6 53 -16 95
-49 92 -28 -2 -42 -32 -42 -89 1 -44 0 -47 -26 -45 -25 2 -26 5 -26 54 0 60
-20 89 -53 79 -25 -8 -36 -36 -37 -90 0 -33 -4 -40 -22 -42 -21 -4 -23 0 -23
42 0 74 -34 112 -71 78 -14 -13 -19 -31 -19 -69 0 -54 0 -54 -50 -46 -3 1 -4
19 -2 41 4 43 -18 90 -42 90 -28 0 -49 -38 -48 -87 l2 -48 -39 3 -38 4 1 61
c1 55 -1 60 -21 62 -21 2 -41 -20 -23 -27 8 -3 13 -43 11 -79 -1 -12 -13 -18
-41 -21 l-40 -4 0 51 c-1 75 -41 109 -75 63 l-17 -23 8 25 c4 14 7 31 7 38 0
6 12 12 26 12 44 0 55 14 55 72 1 29 -3 63 -7 75 -6 17 -1 29 22 54 17 18 31
38 31 46 0 19 43 83 56 83 13 0 16 -88 3 -96 -20 -12 -7 -30 22 -30 28 0 30 2
23 25 -3 14 -6 46 -6 71 0 25 -5 51 -10 58 -11 13 -4 23 60 89 21 23 22 23 22
4 0 -11 -5 -23 -10 -26 -16 -10 -1 -25 25 -25 28 0 41 16 26 34 -6 7 -9 27 -6
45 4 36 59 93 113 117 17 8 32 19 32 26 0 6 8 20 17 30 18 20 33 10 33 -23z
m435 -85 c8 -19 17 -66 21 -102 l6 -67 -26 43 c-14 24 -34 55 -44 70 -11 15
-17 34 -14 42 5 15 32 50 38 50 2 0 10 -16 19 -36z m2111 -223 c0 -138 -4
-247 -7 -243 -11 13 -43 152 -43 187 0 9 8 82 19 180 23 197 33 159 31 -124z
m-913 59 c41 -122 41 -136 12 -258 -15 -62 -31 -112 -35 -112 -4 0 -13 39 -20
88 -6 48 -14 96 -16 107 -1 11 -6 47 -10 80 -3 33 -8 68 -10 78 -4 25 35 113
45 101 5 -5 20 -43 34 -84z m202 38 c7 -18 12 -35 10 -38 -1 -3 -6 -27 -9 -55
-19 -141 -37 -220 -51 -220 -5 0 -18 30 -30 67 -22 66 -22 68 -4 138 20 79 47
140 61 140 5 0 15 -15 23 -32z m295 -79 c6 -30 13 -67 16 -84 12 -76 51 -172
71 -179 18 -7 52 2 68 18 6 6 17 26 24 44 16 39 19 38 26 -10 3 -20 14 -66 24
-101 21 -72 20 -126 -2 -180 l-16 -36 -167 2 -167 3 -12 34 c-16 47 -14 59 44
260 28 96 52 186 55 200 10 55 19 91 22 87 2 -2 9 -28 14 -58z m282 15 c22
-74 24 -100 13 -174 -5 -30 -9 -65 -9 -77 -1 -37 -13 -26 -21 20 -5 23 -9 44
-9 47 -18 62 -27 114 -23 137 15 87 33 105 49 47z m-1413 -24 c5 -17 8 -36 6
-43 -2 -7 -6 -43 -9 -82 -3 -38 -10 -94 -14 -122 -5 -29 -7 -53 -5 -53 2 0 1
-5 -3 -11 -20 -32 -79 145 -68 205 10 60 53 136 75 136 4 0 12 -14 18 -30z
m367 -265 c10 -27 35 -55 49 -55 27 0 46 30 69 107 13 45 21 86 17 90 -3 4 0
4 6 -2 6 -5 17 -48 23 -95 6 -47 20 -118 31 -159 24 -90 15 -130 -30 -132 -75
-2 -365 2 -369 5 -2 2 6 14 17 25 24 24 74 129 87 181 10 42 9 41 17 60 6 18
17 63 24 105 3 17 7 37 8 45 2 8 4 20 5 25 1 6 10 -33 20 -85 10 -52 21 -104
26 -115z m521 133 c0 -7 3 -29 6 -48 3 -19 8 -62 12 -95 3 -33 8 -76 11 -96 3
-22 -1 -52 -11 -75 -27 -66 -35 -70 -127 -68 -46 1 -86 2 -90 3 -3 1 -15 15
-26 32 -20 32 -20 32 0 98 10 36 24 90 30 119 l11 53 21 -38 c26 -46 61 -66
87 -50 20 13 49 75 56 122 5 34 11 55 16 55 2 0 4 -6 4 -12z m-2363 -115 c-1
-16 -2 -34 -3 -40 -2 -22 -21 -14 -21 8 0 18 16 59 24 59 2 0 2 -12 0 -27z
m2979 -108 c14 -55 28 -115 31 -132 4 -32 4 -33 -35 -33 -21 0 -39 3 -39 8 -1
4 -5 27 -10 52 -5 27 -5 63 1 90 12 58 17 92 18 109 2 25 8 8 34 -94z m-1558
-31 c11 -8 11 -17 -5 -51 -10 -23 -30 -49 -44 -58 -23 -16 -27 -16 -56 1 -17
10 -29 23 -27 29 2 5 15 53 27 107 l23 96 34 -56 c19 -32 40 -62 48 -68z m116
31 c8 -47 13 -85 10 -85 -3 0 -16 15 -28 33 -18 27 -20 39 -13 77 4 25 6 48 4
52 -3 5 -1 8 3 8 5 0 15 -38 24 -85z m-1543 -91 c-2 -22 -7 -38 -13 -37 -12 3
-16 38 -9 72 8 38 26 10 22 -35z m280 3 c-5 -57 -28 -61 -28 -4 0 24 3 47 6
50 15 14 25 -7 22 -46z m140 3 c-2 -20 -7 -39 -13 -41 -12 -5 -19 35 -11 67
10 37 28 17 24 -26z m136 27 c8 -34 -5 -90 -18 -76 -12 12 -9 99 3 99 5 0 11
-10 15 -23z m139 1 c4 -13 4 -32 2 -43 -2 -11 -4 -23 -4 -27 -1 -5 -5 -8 -11
-8 -5 0 -10 23 -10 50 0 51 14 67 23 28z m279 10 c6 -16 1 -78 -6 -86 -14 -13
-21 18 -17 76 1 24 16 30 23 10z m-1030 -53 c2 -19 0 -35 -4 -35 -4 0 -8 16
-8 35 0 19 2 35 4 35 2 0 6 -16 8 -35z m1566 -29 l21 -25 -39 1 c-37 0 -38 1
-28 24 14 30 19 30 46 0z"/>
<path d="M1480 4252 c-38 -31 -31 -144 9 -157 43 -13 74 36 66 103 -6 40 -10
49 -35 62 -13 7 -24 5 -40 -8z m40 -61 c0 -22 -3 -46 -6 -55 -11 -29 -24 -5
-24 45 0 37 4 49 15 49 11 0 15 -11 15 -39z"/>
<path d="M1640 4262 c-26 -8 -40 -35 -40 -76 0 -56 20 -91 50 -91 43 0 65 81
39 139 -13 28 -26 35 -49 28z m21 -39 c6 -33 4 -71 -3 -86 -13 -26 -22 -13
-24 36 -2 45 2 57 17 57 5 0 10 -3 10 -7z"/>
<path d="M1915 4251 c-18 -21 -24 -77 -12 -123 7 -28 34 -42 60 -32 39 15 43
125 6 157 -27 22 -32 21 -54 -2z m43 -84 c-2 -23 -7 -42 -13 -42 -12 0 -19 59
-10 94 6 23 8 24 16 8 6 -9 9 -36 7 -60z"/>
<path d="M1176 4251 c-4 -5 -1 -11 5 -13 17 -6 17 -100 0 -120 -12 -15 -12
-18 0 -23 17 -6 39 -2 58 9 11 7 11 10 0 16 -8 6 -12 31 -12 74 1 63 -1 66
-23 66 -12 0 -25 -4 -28 -9z"/>
<path d="M1320 4246 c0 -9 5 -16 10 -16 13 0 13 -97 0 -105 -17 -10 1 -35 26
-35 26 0 44 27 26 39 -6 3 -10 32 -9 66 2 59 1 60 -25 63 -20 2 -28 -1 -28
-12z"/>
<path d="M1760 4253 c0 -5 5 -14 11 -20 16 -16 16 -103 -1 -113 -19 -12 -4
-25 28 -25 30 0 47 16 30 26 -6 4 -12 36 -12 71 -1 61 -2 63 -29 66 -15 2 -27
-1 -27 -5z"/>
<path d="M1509 4053 c-23 -6 -37 -43 -34 -91 4 -52 10 -62 40 -62 33 0 52 32
49 81 -3 45 -28 78 -55 72z m23 -77 c1 -39 -21 -78 -23 -40 -2 20 -2 59 0 84
2 30 21 -7 23 -44z"/>
<path d="M1624 4039 c-26 -29 -23 -108 6 -131 16 -13 26 -15 41 -8 10 6 19 16
20 23 0 7 2 26 5 44 8 67 -36 112 -72 72z m41 -64 c-2 -16 -3 -37 -4 -44 -1
-11 -4 -12 -12 -4 -12 12 -15 75 -4 94 12 18 23 -10 20 -46z"/>
<path d="M1230 4031 c14 -27 16 -101 2 -110 -13 -8 -2 -27 16 -25 6 1 19 2 27
3 16 1 21 31 5 31 -5 0 -9 17 -8 38 1 77 0 82 -27 82 -22 0 -24 -3 -15 -19z"/>
<path d="M1360 4036 c0 -8 4 -17 9 -20 10 -7 7 -78 -4 -96 -10 -16 11 -29 36
-23 20 5 25 18 11 27 -4 2 -7 32 -6 65 1 58 0 61 -22 61 -14 0 -24 -6 -24 -14z"/>
<path d="M1750 4024 c-24 -63 4 -143 45 -128 33 13 48 92 25 135 -16 29 -58
25 -70 -7z m48 -56 c0 -25 -5 -38 -14 -38 -15 0 -20 54 -8 85 10 26 23 -2 22
-47z"/>
<path d="M1890 4031 c13 -25 13 -98 0 -106 -18 -11 0 -25 31 -25 20 0 29 5 29
16 0 8 -4 12 -10 9 -6 -4 -10 18 -10 59 0 64 -1 66 -25 66 -22 0 -24 -3 -15
-19z"/>
<path d="M1484 3848 c-4 -6 -2 -14 4 -16 16 -5 16 -94 0 -110 -15 -15 -6 -24
27 -27 28 -4 40 9 28 28 -4 6 -9 28 -9 47 -1 19 -2 47 -3 63 -1 20 -6 27 -20
27 -11 0 -23 -5 -27 -12z"/>
<path d="M1620 3840 c-10 -18 -14 -61 -11 -102 1 -18 27 -48 42 -48 6 0 21 11
34 24 19 19 22 31 19 65 -2 24 -9 51 -14 62 -14 25 -56 25 -70 -1z m50 -59 c0
-50 -13 -74 -24 -45 -8 20 -8 58 0 78 12 32 24 15 24 -33z"/>
<path d="M1486 3094 c-9 -8 -17 -24 -17 -35 -1 -10 -2 -25 -2 -31 -4 -57 28
-97 66 -82 32 12 42 93 18 137 -17 30 -42 35 -65 11z m42 -75 c-2 -24 -7 -44
-13 -44 -12 0 -19 69 -10 93 11 29 26 -4 23 -49z"/>
<path d="M1620 3094 c-18 -21 -19 -117 -1 -137 34 -41 81 -1 81 68 0 69 -47
109 -80 69z m44 -41 c3 -16 4 -37 2 -48 -3 -11 -5 -24 -6 -30 0 -5 -7 -2 -14
7 -7 10 -12 28 -10 40 1 13 3 31 3 41 1 27 19 20 25 -10z"/>
<path d="M1750 3095 c0 -8 5 -15 10 -15 6 0 10 -25 10 -55 0 -30 -4 -55 -10
-55 -5 0 -10 -7 -10 -15 0 -12 9 -15 35 -13 21 1 35 7 35 15 0 7 -4 13 -8 13
-5 0 -9 21 -9 48 -2 88 -2 88 -28 90 -16 1 -25 -3 -25 -13z"/>
<path d="M1230 2895 c0 -8 5 -15 10 -15 6 0 10 -22 10 -50 0 -29 -4 -50 -11
-50 -6 0 -9 -5 -7 -12 6 -18 55 -21 62 -3 3 8 1 15 -4 15 -5 0 -9 24 -9 54 1
30 -2 59 -6 65 -10 16 -45 13 -45 -4z"/>
<path d="M1366 2894 c-27 -26 -24 -99 5 -129 27 -28 52 -10 63 48 14 72 -28
122 -68 81z m38 -31 c3 -10 4 -27 1 -38 -2 -11 -4 -26 -4 -33 -1 -7 -5 -10
-11 -7 -13 8 -13 95 -1 95 5 0 12 -8 15 -17z"/>
<path d="M1490 2901 c0 -6 4 -12 8 -15 13 -8 14 -99 1 -107 -6 -4 -8 -12 -5
-18 10 -16 41 -14 56 4 9 10 9 15 1 15 -7 0 -11 24 -11 65 0 63 -1 65 -25 65
-14 0 -25 -4 -25 -9z"/>
<path d="M1615 2887 c-11 -17 -14 -37 -10 -68 7 -52 25 -74 54 -64 22 7 34 39
34 92 0 60 -48 85 -78 40z m46 -24 c2 -28 -3 -78 -7 -82 -13 -14 -29 72 -17
92 8 13 23 7 24 -10z"/>
<path d="M1745 2886 c-31 -46 -8 -136 33 -130 6 1 16 2 21 3 14 2 30 58 25 87
-12 66 -50 85 -79 40z m45 -56 c0 -27 -4 -50 -10 -50 -5 0 -10 3 -11 8 0 4 -2
16 -4 27 -5 26 5 65 16 65 5 0 9 -22 9 -50z"/>
<path d="M1880 2897 c0 -7 3 -17 7 -20 12 -12 9 -89 -4 -94 -19 -8 -5 -29 22
-31 25 -2 44 16 28 27 -5 3 -9 33 -9 66 1 55 -1 60 -22 63 -14 2 -22 -2 -22
-11z"/>
<path d="M1223 2703 c-10 -3 -10 -9 0 -26 14 -22 14 -64 2 -104 -7 -21 -4 -23
24 -23 21 0 31 5 31 15 0 8 -4 15 -8 15 -4 0 -7 24 -7 53 2 65 -9 84 -42 70z"/>
<path d="M1356 2694 c-3 -7 0 -14 7 -17 13 -4 18 -97 5 -97 -5 0 -8 -7 -8 -15
0 -10 10 -15 30 -15 28 0 30 2 24 26 -4 14 -7 48 -8 76 -1 45 -4 52 -23 53
-12 1 -24 -4 -27 -11z"/>
<path d="M1513 2699 c-23 -9 -26 -16 -26 -81 1 -88 80 -94 85 -7 4 80 -13 106
-59 88z m30 -84 c-5 -33 -10 -41 -19 -33 -11 12 -12 63 -1 83 10 19 10 19 17
0 4 -11 5 -33 3 -50z"/>
<path d="M1635 2676 c-23 -55 -3 -126 35 -126 28 0 43 28 43 81 0 54 -7 67
-42 74 -18 3 -25 -3 -36 -29z m46 -3 c8 -53 -1 -107 -15 -93 -13 14 -10 100 4
100 6 0 10 -3 11 -7z"/>
<path d="M1795 2702 c-31 -23 -40 -107 -15 -138 18 -21 48 -17 64 9 35 54 -5
162 -49 129z m29 -79 c-3 -38 -10 -50 -21 -40 -8 9 -6 74 3 89 11 18 22 -11
18 -49z"/>
<path d="M1925 2700 c-4 -6 -2 -16 4 -23 11 -14 11 -97 -1 -97 -5 0 -8 -7 -8
-15 0 -10 10 -15 29 -15 l28 0 -5 73 c-4 65 -13 86 -34 87 -4 0 -10 -5 -13
-10z"/>
<path d="M1350 2494 c0 -7 4 -15 10 -19 12 -7 11 -93 -1 -101 -22 -13 -8 -32
23 -31 28 2 56 27 29 27 -7 0 -11 26 -11 69 0 66 -1 69 -25 69 -14 0 -25 -6
-25 -14z"/>
<path d="M1486 2494 c-9 -8 -16 -21 -17 -27 0 -7 -2 -20 -4 -30 -6 -30 15 -86
34 -92 26 -8 49 3 57 27 28 91 -19 174 -70 122z m44 -59 c0 -41 -9 -67 -21
-59 -10 6 -12 87 -3 97 13 13 24 -5 24 -38z"/>
<path d="M1620 2496 c0 -8 4 -17 9 -20 10 -6 7 -78 -4 -113 -7 -21 -4 -23 26
-20 29 2 57 27 30 27 -7 0 -11 26 -11 70 0 68 -1 70 -25 70 -15 0 -25 -6 -25
-14z"/>
<path d="M1756 2488 c-33 -47 -10 -148 33 -148 28 0 43 26 47 79 4 79 -44 121
-80 69z m45 -25 c6 -69 -4 -111 -20 -84 -7 11 -7 30 -2 89 2 19 21 14 22 -5z"/>
<path d="M1890 2495 c-21 -26 -20 -111 2 -135 23 -25 40 -25 62 -1 21 23 20
116 -2 137 -18 18 -46 18 -62 -1z m46 -61 c1 -21 -2 -46 -6 -54 -13 -22 -27
22 -22 66 6 47 27 38 28 -12z"/>
<path d="M1496 2297 c-23 -17 -30 -97 -10 -126 17 -24 46 -27 63 -7 25 31 18
119 -12 138 -16 10 -21 10 -41 -5z m35 -44 c6 -42 -1 -75 -14 -70 -11 3 -13
30 -8 82 2 26 19 16 22 -12z"/>
<path d="M1627 2298 c-24 -18 -32 -95 -12 -124 22 -34 53 -31 69 8 8 17 12 39
11 47 -2 9 -4 24 -4 33 -1 17 -27 48 -40 48 -4 0 -15 -6 -24 -12z m35 -73 c0
-20 -3 -39 -7 -43 -11 -12 -24 22 -20 53 2 17 4 34 4 40 1 5 6 4 12 -2 6 -6
11 -27 11 -48z"/>
<path d="M1744 2299 c-3 -6 -1 -16 5 -22 14 -14 15 -97 1 -97 -5 0 -10 -7 -10
-15 0 -10 11 -15 35 -15 34 0 46 12 25 25 -5 3 -10 32 -10 65 0 43 -4 59 -16
64 -21 8 -22 8 -30 -5z"/>
<path d="M1517 1527 c-24 -17 -33 -79 -17 -117 15 -37 53 -41 71 -8 17 31 13
97 -7 119 -20 22 -25 23 -47 6z m33 -73 c0 -24 -4 -44 -9 -44 -17 0 -21 35
-12 93 0 5 6 5 11 2 6 -3 10 -26 10 -51z"/>
<path d="M1640 1520 c-38 -38 -19 -140 26 -140 30 0 44 27 44 83 0 30 -6 49
-18 60 -24 22 -28 21 -52 -3z m39 -64 c2 -49 -14 -63 -25 -21 -7 29 3 78 14
71 5 -3 9 -25 11 -50z"/>
<path d="M1386 1308 c-13 -30 -13 -58 0 -99 7 -24 46 -32 64 -13 20 20 20 121
0 134 -29 18 -51 11 -64 -22z m49 -46 c0 -59 -19 -57 -23 2 -2 36 0 47 10 44
8 -3 13 -21 13 -46z"/>
<path d="M1514 1328 c-4 -6 -2 -14 4 -16 15 -5 16 -102 1 -102 -25 0 0 -23 28
-26 31 -4 37 6 19 34 -4 7 -7 29 -6 50 3 64 1 72 -19 72 -11 0 -23 -5 -27 -12z"/>
<path d="M1635 1330 c-31 -50 -20 -133 18 -144 46 -12 74 66 45 129 -12 26
-51 35 -63 15z m40 -68 c0 -59 -19 -57 -23 2 -2 36 0 47 10 44 8 -3 13 -21 13
-46z"/>
<path d="M1754 1328 c-4 -6 -2 -14 4 -16 16 -5 16 -99 0 -105 -18 -6 -3 -19
27 -22 30 -4 41 10 25 30 -6 8 -11 29 -10 47 4 66 1 78 -19 78 -11 0 -23 -5
-27 -12z"/>
<path d="M1879 1324 c-21 -26 -21 -102 2 -125 23 -23 33 -24 53 -3 19 19 22
114 4 132 -17 17 -43 15 -59 -4z m41 -58 c0 -46 -15 -70 -23 -39 -4 14 -3 69
2 81 1 1 6 2 11 2 6 0 10 -20 10 -44z"/>
<path d="M1242 1141 c-11 -7 -11 -11 1 -22 14 -15 15 -73 2 -116 -7 -21 -4
-23 29 -23 33 0 36 2 26 19 -5 11 -10 46 -10 79 0 45 -4 61 -16 66 -19 7 -16
7 -32 -3z"/>
<path d="M1380 1140 c-13 -9 -13 -12 0 -23 18 -14 19 -99 2 -105 -7 -2 -12 -8
-12 -13 0 -12 41 -28 58 -22 13 6 17 33 4 33 -5 0 -8 28 -7 63 1 71 -11 89
-45 67z"/>
<path d="M1523 1142 c-30 -19 -36 -98 -12 -144 16 -30 58 -23 73 13 30 71 -12
162 -61 131z m35 -89 c-5 -58 -28 -54 -28 5 0 27 3 52 7 56 12 12 24 -23 21
-61z"/>
<path d="M1655 1130 c-21 -23 -24 -94 -6 -128 18 -34 59 -29 75 10 8 17 12 39
11 47 -2 9 -4 26 -4 38 -1 24 -26 53 -45 53 -7 0 -21 -9 -31 -20z m43 -67 c-5
-66 -28 -70 -28 -4 0 40 3 51 16 51 12 0 15 -9 12 -47z"/>
<path d="M1808 1143 c-24 -6 -40 -55 -33 -99 7 -49 26 -68 58 -60 27 6 37 30
37 86 0 34 -23 81 -38 79 -4 -1 -14 -3 -24 -6z m28 -88 c-2 -45 -25 -61 -27
-18 -2 34 0 53 7 73 9 26 23 -11 20 -55z"/>
<path d="M1938 1139 c-21 -12 -32 -67 -24 -114 8 -42 45 -58 74 -32 26 24 27
112 2 137 -23 23 -28 23 -52 9z m33 -51 c2 -41 -1 -71 -8 -78 -9 -10 -22 27
-19 55 2 17 4 36 5 43 2 27 21 10 22 -20z"/>
</g>
</svg>
