<?xml version="1.0" standalone="no"?>
<!DOCTYPE svg PUBLIC "-//W3C//DTD SVG 20010904//EN"
 "http://www.w3.org/TR/2001/REC-SVG-20010904/DTD/svg10.dtd">
<svg version="1.0" xmlns="http://www.w3.org/2000/svg"
 width="1234.000000pt" height="1234.000000pt" viewBox="0 0 1234.000000 1234.000000"
 preserveAspectRatio="xMidYMid meet">
<metadata>
Created by potrace 1.11, written by Peter Selinger 2001-2013
</metadata>
<g transform="translate(0.000000,1234.000000) scale(0.100000,-0.100000)"
fill="#000000" stroke="none">
<path d="M2230 11502 c-55 -4 -68 -15 -118 -101 -129 -218 -202 -409 -227
-601 -9 -68 -9 -334 0 -421 20 -190 105 -403 257 -642 155 -244 240 -339 791
-888 251 -251 457 -460 457 -464 0 -4 -143 -150 -317 -324 -453 -451 -582
-595 -704 -786 -209 -326 -332 -740 -316 -1065 15 -300 169 -663 475 -1115 76
-113 286 -397 333 -450 66 -76 206 -233 229 -256 45 -46 213 -222 298 -313 46
-48 82 -92 80 -96 -2 -5 -147 -154 -323 -332 -574 -580 -801 -887 -1001 -1353
-112 -260 -207 -602 -230 -824 -4 -31 -9 -74 -13 -96 -4 -22 -7 -130 -7 -239
l1 -200 4391 -4 c3932 -3 4394 -2 4427 12 22 9 37 22 38 33 6 119 9 281 14
883 9 1040 12 2036 5 2112 -7 82 -37 122 -90 120 -88 -2 -148 -148 -229 -557
-27 -137 -59 -320 -71 -405 -25 -179 -30 -213 -34 -217 -2 -2 -15 14 -30 35
-14 21 -45 49 -67 61 -36 21 -46 22 -78 12 -20 -6 -58 -31 -85 -56 -27 -25
-53 -45 -58 -45 -4 0 -9 11 -9 25 -1 14 -2 28 -3 33 -1 4 -6 43 -10 87 -4 44
-9 94 -11 110 -9 69 -25 227 -40 380 -6 67 -24 293 -40 510 -20 268 -23 296
-36 365 -19 93 -65 164 -115 176 -39 10 -109 -1 -137 -22 -75 -57 -133 -229
-192 -576 -6 -37 -25 -54 -25 -23 0 23 -57 229 -92 330 -43 126 -61 157 -105
188 -102 71 -215 0 -272 -171 -39 -118 -102 -472 -146 -822 -2 -19 -11 -91
-19 -160 -9 -69 -18 -138 -20 -155 -2 -16 -5 -41 -5 -54 -1 -26 -8 -26 -94 5
-116 41 -195 -33 -288 -270 l-46 -119 -28 84 c-39 118 -115 277 -154 321 -36
42 -94 63 -142 53 -16 -4 -50 -22 -74 -41 -25 -19 -45 -30 -45 -25 0 5 -4 43
-10 83 -5 40 -12 95 -15 122 -25 235 -106 591 -159 700 -42 87 -74 122 -126
136 -48 13 -97 -4 -135 -47 -29 -34 -75 -126 -75 -153 0 -23 -18 -37 -24 -18
-3 7 -7 65 -10 128 -4 63 -8 126 -10 140 -3 14 -10 66 -16 115 -24 179 -98
500 -156 676 -19 58 -35 87 -66 118 -51 50 -89 59 -155 37 -91 -30 -154 -110
-210 -266 -48 -134 -70 -256 -98 -545 -3 -33 -8 -76 -10 -95 -3 -19 -7 -60
-10 -90 -3 -30 -7 -75 -10 -100 -4 -43 -9 -94 -20 -197 -6 -64 -12 -121 -29
-288 -9 -77 -18 -171 -21 -210 -3 -38 -7 -83 -10 -100 -2 -16 -7 -64 -11 -105
-21 -252 -29 -305 -44 -301 -46 11 -112 12 -146 1 -53 -17 -118 -72 -156 -131
-17 -27 -35 -49 -39 -49 -8 0 -20 76 -34 215 -3 33 -8 80 -10 105 -7 62 -15
178 -20 280 -11 222 -15 327 -20 470 -11 343 -31 620 -50 690 -2 8 -6 32 -10
53 -17 118 -76 260 -121 296 -61 48 -139 14 -218 -95 -58 -78 -76 -91 -140
-98 -134 -16 -214 -75 -281 -206 -23 -46 -90 -319 -120 -491 -7 -40 -43 -378
-50 -469 -4 -47 -8 -86 -9 -87 -1 -2 -16 15 -32 36 -34 46 -100 81 -152 81
-71 -1 -146 -52 -203 -139 l-16 -25 -78 105 c-43 57 -92 120 -109 139 -17 20
-51 60 -76 90 -66 79 -221 261 -247 290 -13 14 -22 28 -21 31 2 4 58 66 126
137 273 289 563 672 729 964 127 225 230 529 272 803 6 39 13 88 17 110 3 22
7 110 9 195 7 378 -76 661 -303 1027 -151 243 -516 711 -716 919 -89 91 -243
259 -250 271 -6 11 13 35 80 96 151 138 625 616 715 722 125 147 169 206 259
350 140 223 201 368 259 615 41 174 54 275 55 420 0 195 -12 280 -84 575 -40
164 -66 232 -93 249 -54 34 -209 40 -1292 51 -286 3 -704 8 -930 11 -225 3
-468 6 -540 7 -71 1 -150 1 -175 -1z m364 -398 l47 -7 -3 -146 c-3 -143 -3
-146 -25 -149 -18 -3 -23 -10 -23 -32 0 -25 4 -28 38 -32 20 -3 58 -3 85 0 44
4 47 6 47 33 0 21 -5 28 -22 31 -23 3 -23 6 -26 156 l-3 152 117 0 116 0 -8
-57 c-27 -175 14 -302 102 -319 33 -6 67 8 100 41 34 33 49 183 30 288 l-8 47
80 0 80 0 -5 -118 c-6 -132 3 -180 45 -224 54 -58 129 -42 173 36 20 35 23 56
24 136 0 52 -4 112 -9 133 l-8 37 77 0 77 0 -8 -62 c-30 -222 47 -364 165
-303 47 24 75 95 75 190 1 44 -3 101 -8 128 l-8 47 82 0 82 0 -8 -57 c-12 -80
-10 -160 5 -212 16 -56 69 -111 106 -111 110 0 156 137 119 348 l-6 32 83 0
c46 0 101 -3 122 -6 l37 -7 0 -148 0 -149 -25 0 c-21 0 -25 -5 -25 -30 l0 -30
85 0 85 0 0 29 c0 23 -5 30 -22 33 -23 3 -23 6 -26 156 l-3 152 117 0 c107 0
116 -1 109 -17 -4 -10 -10 -64 -12 -119 -4 -78 -2 -113 11 -150 36 -109 150
-125 201 -30 34 63 45 47 45 -64 l0 -100 -75 0 -75 0 0 -30 c0 -25 4 -30 25
-30 l25 0 0 -155 0 -155 -25 0 c-21 0 -25 -5 -25 -30 0 -20 5 -30 15 -30 20 0
19 -5 -12 -72 -26 -56 -27 -57 -72 -60 -42 -3 -46 -5 -49 -30 -3 -24 0 -28 22
-28 14 0 26 -5 26 -10 0 -18 -40 -91 -98 -180 -31 -47 -61 -92 -67 -102 -44
-71 -120 -168 -131 -168 -27 0 -81 -60 -94 -103 -12 -45 -103 -157 -127 -157
-9 0 -13 16 -13 48 0 72 -25 154 -55 179 -50 44 -106 42 -150 -5 -34 -36 -46
-84 -46 -185 0 -97 18 -155 62 -191 16 -14 29 -31 29 -39 0 -15 -194 -200
-215 -205 -7 -2 -16 5 -19 16 -21 65 -120 90 -170 43 -36 -34 -56 -102 -56
-193 0 -49 -4 -78 -11 -78 -6 0 -51 40 -100 89 l-89 88 0 57 0 56 -68 0 c-58
0 -71 3 -88 23 -12 12 -71 69 -132 126 l-112 103 0 158 0 159 -45 7 c-59 8
-75 1 -75 -36 0 -25 4 -30 25 -30 25 0 25 -1 25 -80 0 -64 -3 -80 -15 -80 -17
0 -193 159 -376 340 l-126 125 -5 91 c-4 70 -11 101 -28 132 -33 59 -69 71
-145 47 -16 -5 -27 5 -57 55 -21 33 -38 66 -38 72 0 7 13 20 28 29 45 25 66
81 70 185 4 104 -8 160 -44 203 -39 47 -98 50 -156 9 -9 -7 -20 -9 -24 -5 -8
8 9 110 32 195 16 56 38 69 48 28 10 -40 54 -85 91 -92 35 -6 68 6 97 36 40
42 62 206 37 279 -18 51 -8 61 64 61 35 0 85 -3 111 -6z m1244 -32 c13 -40 15
-184 2 -231 -9 -34 -15 -41 -36 -41 -34 0 -47 36 -48 140 -1 106 9 157 32 162
27 7 40 -2 50 -30z m377 2 c19 -40 20 -208 2 -244 -17 -34 -52 -38 -69 -8 -16
28 -16 220 0 260 15 37 47 33 67 -8z m747 19 c16 -19 24 -203 11 -253 -12 -45
-54 -55 -75 -18 -17 32 -17 227 0 259 15 29 45 34 64 12z m-1881 -15 c16 -30
20 -195 6 -238 -17 -49 -51 -53 -66 -8 -20 64 -18 196 4 256 7 20 43 14 56
-10z m388 -22 c24 -95 6 -247 -29 -253 -37 -7 -45 13 -48 129 -4 130 5 168 42
168 20 0 25 -7 35 -44z m-1132 7 c12 -45 7 -216 -6 -241 -16 -30 -42 -25 -59
11 -18 36 -19 187 -2 197 6 4 12 11 13 16 2 13 30 44 39 44 4 0 11 -12 15 -27z
m-86 -520 c18 -45 13 -230 -6 -259 -40 -62 -75 0 -75 134 0 111 13 152 46 152
17 0 28 -8 35 -27z m173 -541 c3 -5 8 -28 12 -50 5 -34 4 -42 -8 -42 -15 0
-68 70 -68 90 0 12 57 14 64 2z m1790 -527 c20 -21 29 -91 24 -185 -5 -82 -17
-110 -49 -110 -33 0 -43 38 -42 153 1 81 5 114 17 132 19 29 29 31 50 10z
m-360 -577 c27 -38 20 -78 -21 -120 -54 -56 -63 -51 -56 30 8 101 42 140 77
90z m-126 -797 c28 -27 52 -53 52 -58 0 -4 -9 -14 -20 -20 -47 -30 -73 -137
-58 -243 10 -76 30 -115 69 -135 85 -44 159 47 159 195 0 27 4 40 13 40 18 0
107 -99 107 -118 0 -9 9 -35 21 -59 22 -45 61 -73 102 -73 16 0 36 -15 63 -47
59 -71 116 -137 123 -143 4 -3 18 -20 33 -37 23 -29 27 -42 27 -102 0 -82 7
-113 34 -164 26 -47 79 -67 127 -47 39 16 40 15 116 -110 122 -201 124 -205
124 -281 0 -62 -2 -69 -20 -69 -15 0 -20 -7 -20 -25 0 -24 2 -25 68 -25 l67
-1 28 -62 c33 -75 34 -85 5 -89 -17 -2 -24 -11 -26 -30 -3 -24 0 -28 22 -28
l26 0 0 -145 c0 -138 -1 -145 -20 -145 -15 0 -20 -7 -20 -25 0 -23 4 -25 41
-25 41 0 42 0 36 -33 -3 -18 -12 -50 -21 -70 l-15 -37 -70 0 -71 0 0 -30 c0
-25 4 -30 25 -30 24 0 25 -2 25 -64 0 -72 -13 -106 -78 -206 -79 -121 -197
-279 -209 -279 -6 -1 -15 8 -18 19 -4 11 -19 27 -35 35 -112 58 -186 -74 -157
-275 7 -47 6 -58 -10 -75 -10 -11 -45 -52 -77 -92 l-58 -72 -66 -3 c-65 -3
-67 -4 -70 -30 -3 -24 0 -28 22 -28 53 0 33 -42 -86 -185 -105 -127 -138 -155
-138 -120 0 8 -9 15 -20 15 -19 0 -20 8 -22 173 l-3 172 -55 0 c-53 0 -55 -1
-58 -27 -3 -24 0 -28 22 -28 l26 0 0 -145 c0 -138 -1 -145 -20 -145 -15 0 -20
-7 -20 -25 0 -24 2 -25 70 -25 40 0 70 -4 70 -10 0 -14 -101 -120 -114 -120
-6 0 -57 44 -114 98 l-103 97 12 55 c15 68 6 167 -20 218 -44 87 -149 80 -182
-13 -7 -19 -17 -35 -23 -35 -18 0 -206 209 -206 229 0 6 9 11 20 11 28 0 28
46 0 55 -18 6 -20 17 -22 173 l-3 167 -55 0 c-53 0 -55 -1 -58 -27 -3 -24 0
-28 22 -28 l26 0 0 -130 c0 -97 -3 -130 -12 -130 -27 0 -338 393 -338 426 0
10 13 14 40 14 38 0 40 2 40 29 0 23 -5 30 -22 33 -23 3 -23 5 -26 181 l-2
177 -60 0 c-60 0 -60 0 -60 -30 0 -25 4 -30 25 -30 l25 0 0 -140 c0 -152 -7
-168 -47 -107 -73 109 -222 377 -237 425 -6 16 -1 30 18 52 50 60 59 225 17
308 -19 38 -55 62 -91 62 -24 0 -25 16 -4 91 l16 58 55 -2 c50 -2 57 1 83 30
47 52 61 172 34 294 -4 17 0 31 10 42 9 8 16 18 16 22 0 3 18 33 40 66 l41 59
84 0 85 0 0 29 c0 23 -5 30 -22 33 -20 3 -23 10 -26 53 l-3 51 112 122 c62 67
119 122 126 122 7 0 13 -11 13 -25 0 -20 5 -25 25 -25 l25 0 0 -150 0 -150
-25 0 c-21 0 -25 -5 -25 -30 l0 -30 85 0 85 0 0 29 c0 23 -5 30 -22 33 -23 3
-23 5 -26 181 l-2 177 -55 0 c-32 0 -55 4 -55 10 0 6 19 35 41 65 39 52 44 55
87 55 l45 0 -6 36 c-6 38 -13 30 172 203 67 63 71 59 71 -74 0 -108 -1 -115
-20 -115 -15 0 -20 -7 -20 -25 0 -24 2 -25 75 -25 73 0 75 1 75 25 0 18 -5 25
-20 25 -19 0 -20 7 -20 158 l0 157 77 72 c43 40 85 73 93 73 8 0 39 -22 68
-49z m123 -163 c14 -54 8 -211 -10 -232 -18 -22 -48 -20 -61 3 -5 11 -10 68
-10 126 0 117 9 145 45 145 20 0 26 -7 36 -42z m698 -734 c27 -34 27 -54 0
-54 -26 0 -48 26 -49 58 0 30 24 28 49 -4z m-2081 -479 c-6 -70 -19 -95 -50
-95 -31 0 -32 27 -2 95 38 87 59 87 52 0z m-89 -386 c6 -18 11 -65 11 -104 0
-153 -25 -178 -57 -57 -41 151 -38 192 11 192 18 0 27 -8 35 -31z m2147 -1069
c1 -8 5 -27 9 -41 5 -20 -1 -35 -27 -69 -50 -66 -58 -63 -58 20 0 86 11 112
47 108 15 -2 27 -10 29 -18z m2487 -317 c119 -396 146 -573 177 -1133 11 -201
25 -425 32 -498 13 -150 11 -173 -53 -613 -57 -397 -147 -773 -234 -985 -67
-164 -129 -263 -150 -242 -9 9 -87 460 -160 928 l-34 215 29 300 c64 648 111
1118 130 1290 10 99 24 232 30 295 29 293 113 530 187 530 16 0 25 -17 46 -87z
m-3514 -224 c15 -44 15 -169 -1 -169 -7 0 -27 14 -45 32 -28 27 -33 39 -33 81
0 60 14 87 44 87 18 0 27 -8 35 -31z m2289 -121 c53 -173 68 -344 92 -1038 14
-382 32 -599 75 -900 19 -135 38 -261 41 -281 4 -24 -3 -74 -20 -145 -14 -60
-37 -154 -50 -209 -32 -137 -135 -543 -147 -582 -9 -29 -15 -33 -47 -33 -43 0
-123 -35 -168 -73 -52 -44 -59 -38 -78 76 -22 127 -94 409 -139 542 -19 55
-59 156 -90 225 -55 123 -56 127 -82 320 -13 107 -30 232 -36 276 -8 59 -8
102 0 155 6 41 16 135 21 209 37 461 69 740 105 905 62 285 78 329 140 383 30
27 44 32 88 32 29 0 68 5 88 10 43 12 119 76 149 125 27 44 46 44 58 3z m3942
-207 c5 -21 19 -166 30 -322 25 -351 46 -596 65 -759 8 -69 21 -192 30 -275 9
-82 27 -211 41 -285 14 -74 28 -149 31 -165 3 -19 -13 -93 -45 -205 -58 -201
-77 -250 -96 -250 -20 0 -69 135 -100 271 -27 121 -75 380 -125 669 -57 335
-56 321 -37 502 10 90 28 219 41 288 13 69 29 154 35 190 23 139 65 310 86
353 20 37 31 34 44 -12z m-547 -148 c47 -138 85 -299 137 -588 l42 -230 -17
-140 c-43 -358 -114 -687 -250 -1163 -25 -86 -45 -161 -45 -169 0 -7 -6 -13
-14 -13 -16 0 -21 18 -36 150 -27 224 -62 430 -122 705 -19 89 104 1043 177
1371 33 146 48 184 73 184 14 0 26 -23 55 -107z m-1594 -340 c17 -54 43 -151
56 -216 27 -128 115 -774 115 -845 0 -24 -18 -109 -39 -190 -22 -81 -51 -201
-66 -267 -65 -293 -101 -396 -119 -337 -15 49 -47 233 -61 352 -9 74 -27 218
-40 320 -61 470 -58 420 -35 570 12 74 36 238 55 363 58 384 79 423 134 250z
m-3732 -285 c27 -26 33 -39 33 -74 0 -59 -17 -94 -46 -94 -32 0 -44 27 -51
120 -5 73 -4 80 13 80 10 0 33 -14 51 -32z m-137 -78 c0 -80 61 -160 122 -160
38 0 85 35 99 74 7 21 20 36 29 36 16 0 210 -201 210 -219 0 -5 -12 -11 -27
-13 -22 -2 -29 -9 -31 -30 -3 -24 0 -28 22 -28 l26 0 0 -139 c0 -130 -1 -139
-20 -144 -14 -3 -20 -14 -20 -31 0 -26 1 -26 75 -26 74 0 75 0 75 26 0 17 -6
28 -20 31 -19 5 -20 14 -20 139 0 112 2 134 15 134 8 0 15 -3 15 -8 0 -4 34
-50 76 -102 42 -52 84 -114 94 -137 11 -23 31 -53 46 -65 32 -27 104 -135 104
-156 0 -11 -7 -13 -27 -8 -70 18 -84 18 -109 1 -43 -28 -65 -93 -65 -191 0
-101 24 -165 73 -190 112 -58 187 110 142 319 -5 20 -3 27 9 27 9 0 21 -9 27
-19 5 -11 16 -25 23 -33 12 -13 58 -81 111 -165 32 -52 34 -83 6 -83 -15 0
-20 -7 -20 -25 0 -23 4 -25 45 -25 l45 0 70 -140 70 -140 0 -105 0 -105 -25 0
c-21 0 -25 -5 -25 -30 l0 -29 83 -3 82 -3 32 -95 c64 -191 104 -330 101 -352
-3 -21 -8 -23 -55 -22 -29 0 -55 3 -59 7 -4 3 -1 36 6 73 23 120 -3 234 -60
268 -59 34 -115 9 -144 -65 -19 -48 -23 -189 -6 -233 19 -51 16 -53 -67 -49
-43 2 -97 6 -120 9 l-43 5 -2 172 -3 172 -55 0 c-53 0 -55 -1 -58 -27 -3 -24
0 -28 22 -28 l26 0 0 -144 0 -143 -31 -7 c-17 -3 -74 -6 -126 -6 l-95 0 8 48
c25 138 2 261 -56 295 -109 65 -185 -68 -156 -275 l7 -58 -91 0 -92 0 9 43
c14 75 10 189 -10 233 -31 69 -100 93 -150 54 -50 -40 -70 -140 -53 -267 l8
-63 -87 0 -87 0 9 43 c14 75 10 189 -10 233 -31 69 -100 93 -150 54 -46 -36
-61 -96 -55 -221 l6 -110 -87 3 c-85 3 -86 3 -83 28 2 14 4 66 5 115 2 105
-16 161 -63 188 -87 52 -160 -27 -162 -173 0 -36 3 -85 7 -108 l7 -42 -116 0
-116 0 -2 168 -3 167 -55 0 c-53 0 -55 -1 -58 -27 -3 -24 0 -28 22 -28 l26 0
0 -140 0 -141 -125 2 -126 1 8 36 c15 68 9 185 -10 228 -20 44 -61 74 -100 74
-29 0 -73 -32 -82 -60 -4 -11 -13 -20 -22 -20 -12 0 -14 8 -10 33 6 42 38 150
47 160 4 5 26 3 49 -4 57 -17 102 4 133 63 19 36 22 59 22 148 1 90 -2 111
-22 147 -28 54 -28 61 5 128 18 37 35 58 50 61 36 10 70 59 84 121 11 52 75
161 101 171 4 2 8 8 8 14 0 18 28 38 54 38 l26 0 0 -145 c0 -138 -1 -145 -20
-145 -15 0 -20 -7 -20 -25 0 -24 2 -25 75 -25 73 0 75 1 75 25 0 18 -5 25 -20
25 -19 0 -20 8 -22 173 l-3 172 -27 3 c-16 2 -28 8 -28 14 0 22 247 298 267
298 9 0 13 -18 13 -59 0 -51 -3 -61 -20 -66 -13 -4 -20 -15 -20 -31 0 -23 2
-24 75 -24 72 0 75 1 75 24 0 15 -7 26 -20 29 -18 5 -20 14 -20 114 l0 109 76
70 c42 38 101 92 132 121 34 31 66 53 80 53 44 0 83 30 104 78 24 56 84 120
116 121 19 1 22 -4 22 -39z m6890 -885 c0 -630 -2 -735 -14 -735 -9 0 -21 22
-31 58 -26 88 -93 381 -100 437 -4 32 7 168 30 375 41 372 80 600 101 600 12
0 14 -114 14 -735z m-5732 652 c28 -30 48 -87 73 -216 27 -137 31 -274 8 -279
-12 -2 -27 15 -50 55 -18 32 -65 108 -104 168 -39 61 -75 115 -79 122 -9 15
38 109 72 146 31 33 52 34 80 4z m3187 -302 c36 -60 85 -201 130 -370 66 -244
65 -205 8 -441 -28 -115 -63 -262 -78 -327 -21 -94 -30 -118 -43 -115 -9 2
-19 17 -23 33 -31 121 -139 897 -139 996 0 33 12 80 35 139 58 151 67 159 110
85z m588 -33 c9 -10 28 -44 43 -76 l26 -58 -16 -112 c-9 -61 -26 -172 -37
-246 -22 -151 -51 -292 -80 -392 -16 -55 -24 -68 -40 -68 -25 0 -44 44 -104
241 l-45 151 31 131 c62 268 136 447 183 447 12 0 30 -8 39 -18z m812 -159
c21 -147 99 -511 124 -583 39 -114 78 -200 103 -227 27 -29 77 -38 122 -23 63
21 125 103 157 208 23 79 40 53 80 -128 20 -91 54 -230 74 -310 28 -110 36
-157 32 -195 -6 -52 -79 -282 -94 -294 -4 -4 -218 -6 -474 -3 l-467 4 -6 32
c-3 17 -14 78 -25 136 l-20 105 44 130 c24 72 60 193 80 270 20 77 52 194 72
260 43 149 96 359 129 518 30 148 30 147 48 147 9 0 16 -16 21 -47z m758 -7
c17 -37 58 -184 77 -281 10 -54 8 -84 -19 -270 -17 -116 -32 -223 -33 -240 -2
-17 -9 -31 -18 -33 -12 -2 -20 18 -33 85 -10 48 -40 181 -68 294 l-50 207 26
88 c56 185 84 220 118 150z m-3814 -92 c39 -50 43 -91 26 -282 -19 -216 -72
-653 -81 -661 -9 -9 -38 31 -83 112 -43 78 -78 200 -106 364 l-17 102 41 124
c44 135 68 184 115 235 38 40 76 43 105 6z m-1870 -75 c14 -40 14 -172 0 -221
-8 -31 -15 -38 -34 -38 -36 0 -45 28 -45 145 0 117 9 145 44 145 18 0 27 -8
35 -31z m2790 -206 c26 -252 78 -473 131 -556 61 -97 147 -91 201 14 22 44 79
237 111 376 14 63 28 103 36 103 6 0 12 -5 12 -10 0 -27 81 -536 99 -623 12
-55 34 -139 51 -188 16 -50 30 -101 30 -114 0 -12 -13 -54 -29 -92 l-29 -68
-319 -3 c-175 -2 -423 0 -550 3 -212 7 -233 9 -233 25 0 9 11 22 24 28 61 28
175 230 246 438 62 182 180 676 180 757 0 16 5 27 13 27 10 0 17 -33 26 -117z
m1495 -100 c11 -60 27 -181 62 -475 l37 -307 -36 -83 c-21 -46 -55 -111 -77
-145 l-39 -63 -109 0 c-60 0 -171 3 -247 7 -157 7 -150 3 -217 116 l-41 68 47
167 c25 92 62 237 82 322 20 85 38 157 40 159 11 12 31 -14 48 -60 32 -94 97
-172 154 -188 41 -12 107 21 140 69 29 43 76 191 104 329 23 110 41 140 52 84z
m-6380 -361 c0 -108 -10 -135 -48 -130 -30 4 -43 49 -27 96 64 178 76 184 75
34z m8005 -90 c56 -196 120 -473 127 -554 l6 -76 -86 -7 c-47 -4 -92 -5 -99
-2 -18 7 -44 92 -64 208 -15 95 -15 98 10 230 15 74 32 176 39 227 6 51 16 92
22 92 6 0 26 -53 45 -118z m-4347 21 c25 -69 97 -186 158 -255 l53 -60 -13
-51 c-16 -64 -49 -126 -96 -184 -40 -49 -80 -73 -121 -73 -35 0 -173 76 -173
95 0 7 32 138 70 289 39 152 70 278 70 281 0 3 8 5 18 5 12 0 23 -15 34 -47z
m482 -125 c15 -95 31 -192 37 -215 13 -59 12 -103 -4 -103 -7 0 -42 39 -77 88
l-63 87 12 65 c6 36 17 107 23 158 9 74 15 92 28 92 14 0 21 -30 44 -172z
m-4164 -183 c16 -19 25 -146 16 -210 -7 -46 -7 -46 -44 -43 l-37 3 -3 106 c-1
58 2 118 7 132 12 30 41 36 61 12z m759 -16 c12 -35 15 -158 5 -209 -9 -42
-50 -63 -70 -35 -17 23 -20 226 -4 256 17 31 56 24 69 -12z m380 0 c15 -44 14
-198 -2 -229 -16 -31 -46 -38 -64 -14 -16 22 -18 226 -3 255 17 31 56 24 69
-12z m370 -6 c6 -21 11 -69 11 -108 0 -99 -14 -145 -45 -145 -36 0 -45 28 -45
145 0 117 9 145 45 145 19 0 26 -7 34 -37z m382 -5 c14 -54 8 -211 -10 -232
-18 -22 -48 -20 -61 3 -5 11 -10 68 -10 126 0 117 9 145 45 145 20 0 26 -7 36
-42z m748 5 c6 -21 11 -69 11 -108 0 -100 -14 -145 -46 -145 -35 0 -44 32 -44
151 0 111 9 139 45 139 19 0 26 -7 34 -37z m-2780 -106 c0 -51 3 -101 7 -111
6 -15 2 -17 -22 -14 -28 3 -29 5 -28 53 1 90 14 165 29 165 11 0 14 -21 14
-93z m4196 -72 c22 -30 50 -62 63 -70 12 -9 22 -22 22 -30 0 -12 -20 -15 -110
-15 -60 0 -110 3 -110 8 0 17 76 161 85 161 6 0 28 -24 50 -54z"/>
<path d="M3374 10631 c-53 -23 -84 -103 -84 -214 0 -95 14 -149 50 -187 56
-60 133 -44 174 35 25 48 34 197 16 263 -21 82 -94 129 -156 103z m60 -64 c24
-17 36 -95 30 -193 -5 -85 -16 -114 -44 -114 -42 0 -50 24 -50 153 0 95 4 128
16 145 18 26 24 27 48 9z"/>
<path d="M3764 10631 c-54 -23 -84 -103 -84 -220 0 -70 5 -96 25 -138 54 -117
175 -102 213 25 15 49 16 184 1 235 -21 77 -95 123 -155 98z m73 -78 c14 -22
18 -48 17 -137 0 -123 -11 -156 -49 -156 -38 0 -48 32 -48 157 0 88 4 117 17
137 21 33 41 33 63 -1z"/>
<path d="M4564 10631 c-54 -23 -84 -103 -84 -220 0 -70 5 -96 25 -138 54 -117
175 -102 213 25 15 49 16 184 1 235 -21 77 -95 123 -155 98z m73 -78 c14 -21
17 -48 17 -137 -1 -123 -11 -156 -49 -156 -38 0 -48 32 -48 157 0 88 4 117 17
137 21 33 41 33 63 -1z"/>
<path d="M2530 10600 c0 -25 4 -30 25 -30 l25 0 0 -155 0 -155 -25 0 c-21 0
-25 -5 -25 -30 l0 -30 85 0 85 0 0 30 c0 23 -4 30 -20 30 -19 0 -20 7 -20 185
l0 185 -65 0 -65 0 0 -30z"/>
<path d="M2930 10600 c0 -25 4 -30 25 -30 l25 0 0 -155 0 -155 -25 0 c-21 0
-25 -5 -25 -30 l0 -30 85 0 85 0 0 30 c0 23 -4 30 -20 30 -19 0 -20 7 -20 185
l0 185 -65 0 -65 0 0 -30z"/>
<path d="M4120 10600 c0 -25 4 -30 25 -30 l25 0 0 -155 0 -155 -25 0 c-21 0
-25 -5 -25 -30 l0 -30 85 0 85 0 0 30 c0 23 -4 30 -20 30 -19 0 -20 7 -20 185
l0 185 -65 0 -65 0 0 -30z"/>
<path d="M2667 10064 c-4 -4 -7 -18 -7 -31 0 -18 5 -23 25 -23 l25 0 0 -145
c0 -138 -1 -145 -20 -145 -15 0 -20 -7 -20 -25 0 -24 2 -25 75 -25 73 0 75 1
75 25 0 18 -5 25 -20 25 -19 0 -20 8 -22 173 l-3 172 -50 3 c-28 2 -54 0 -58
-4z"/>
<path d="M3027 10064 c-4 -4 -7 -18 -7 -31 0 -18 5 -23 25 -23 l25 0 0 -145
c0 -138 -1 -145 -20 -145 -15 0 -20 -7 -20 -25 0 -24 2 -25 75 -25 73 0 75 1
75 25 0 18 -5 25 -20 25 -19 0 -20 8 -22 173 l-3 172 -50 3 c-28 2 -54 0 -58
-4z"/>
<path d="M3398 10050 c-38 -29 -59 -91 -59 -174 -1 -121 26 -186 85 -206 66
-21 117 23 137 118 37 182 -62 342 -163 262z m93 -82 c14 -54 8 -211 -10 -232
-18 -22 -48 -20 -61 3 -5 11 -10 68 -10 126 0 117 9 145 45 145 20 0 26 -7 36
-42z"/>
<path d="M3758 10050 c-37 -28 -59 -93 -60 -170 -1 -116 26 -187 81 -209 89
-38 162 76 148 231 -12 135 -95 207 -169 148z m93 -82 c14 -54 8 -211 -10
-232 -18 -22 -48 -20 -61 3 -5 11 -10 68 -10 126 0 117 9 145 45 145 20 0 26
-7 36 -42z"/>
<path d="M4122 10054 c-68 -47 -88 -236 -36 -336 18 -35 73 -61 109 -52 86 21
124 217 66 337 -31 63 -91 85 -139 51z m91 -89 c12 -56 4 -210 -12 -229 -18
-22 -48 -20 -61 3 -13 26 -13 227 1 252 7 14 19 19 37 17 22 -2 28 -10 35 -43z"/>
<path d="M4447 10064 c-4 -4 -7 -18 -7 -31 0 -18 5 -23 25 -23 l25 0 0 -145
c0 -138 -1 -145 -20 -145 -15 0 -20 -7 -20 -25 0 -24 2 -25 75 -25 73 0 75 1
75 25 0 18 -5 25 -20 25 -19 0 -20 8 -22 173 l-3 172 -50 3 c-28 2 -54 0 -58
-4z"/>
<path d="M3373 9543 c-7 -2 -13 -18 -13 -34 0 -24 4 -29 25 -29 l25 0 0 -150
0 -150 -25 0 c-21 0 -25 -5 -25 -29 l0 -29 73 -4 c91 -5 97 -2 97 33 0 22 -5
29 -19 29 -26 0 -31 35 -31 210 0 126 -2 149 -16 154 -18 7 -73 7 -91 -1z"/>
<path d="M3763 9528 c-42 -30 -64 -93 -64 -189 -1 -106 16 -162 59 -200 30
-27 41 -30 74 -26 49 7 61 17 90 75 20 40 23 62 22 147 -1 144 -32 202 -111
211 -29 4 -46 0 -70 -18z m88 -54 c18 -22 25 -210 9 -258 -9 -28 -17 -36 -35
-36 -15 0 -29 9 -37 23 -16 28 -16 222 0 260 13 31 42 36 63 11z"/>
<path d="M3382 7495 c-42 -35 -63 -94 -64 -179 -1 -132 30 -209 93 -228 54
-16 93 3 127 61 25 42 27 55 27 151 -1 120 -18 170 -69 201 -42 26 -79 24
-114 -6z m97 -76 c14 -41 14 -197 0 -238 -9 -27 -16 -32 -38 -29 -39 4 -54 60
-48 173 6 111 11 125 47 125 22 0 30 -6 39 -31z"/>
<path d="M3755 7501 c-49 -32 -68 -101 -63 -219 5 -125 28 -175 88 -193 58
-18 100 4 131 68 45 92 27 285 -31 338 -29 26 -90 29 -125 6z m86 -57 c17 -20
25 -203 12 -254 -10 -37 -42 -52 -68 -30 -17 14 -29 134 -20 210 9 81 43 114
76 74z"/>
<path d="M4090 7480 c0 -25 4 -30 25 -30 l25 0 0 -150 0 -150 -25 0 c-21 0
-25 -5 -25 -30 l0 -30 85 0 85 0 0 30 c0 25 -4 30 -25 30 l-25 0 0 180 0 180
-60 0 -60 0 0 -30z"/>
<path d="M2687 6974 c-4 -4 -7 -18 -7 -31 0 -18 5 -23 25 -23 l25 0 0 -145 c0
-138 -1 -145 -20 -145 -15 0 -20 -7 -20 -25 0 -24 2 -25 75 -25 73 0 75 1 75
25 0 18 -5 25 -20 25 -19 0 -20 8 -22 173 l-3 172 -50 3 c-28 2 -54 0 -58 -4z"/>
<path d="M3062 6964 c-51 -35 -77 -144 -60 -249 20 -129 101 -181 176 -112 54
50 68 227 24 314 -30 59 -93 80 -140 47z m89 -86 c14 -54 8 -211 -10 -232 -18
-22 -48 -20 -61 3 -5 11 -10 68 -10 126 0 117 9 145 45 145 20 0 26 -7 36 -42z"/>
<path d="M3387 6974 c-4 -4 -7 -18 -7 -31 0 -18 5 -23 25 -23 l25 0 0 -145 c0
-138 -1 -145 -20 -145 -15 0 -20 -7 -20 -25 0 -24 2 -25 75 -25 73 0 75 1 75
25 0 18 -5 25 -20 25 -19 0 -20 8 -22 173 l-3 172 -50 3 c-28 2 -54 0 -58 -4z"/>
<path d="M3744 6955 c-41 -41 -56 -90 -55 -182 0 -100 25 -164 73 -189 93 -48
170 69 155 234 -13 134 -104 206 -173 137z m96 -71 c16 -47 9 -216 -9 -238
-18 -22 -48 -20 -61 3 -5 11 -10 68 -10 126 0 117 9 145 45 145 18 0 26 -8 35
-36z"/>
<path d="M4102 6964 c-67 -46 -87 -236 -37 -335 33 -64 113 -73 159 -19 72 86
53 321 -29 358 -35 16 -66 15 -93 -4z m85 -71 c5 -16 8 -73 8 -129 0 -106 -10
-134 -46 -134 -30 0 -39 33 -39 145 0 118 9 145 45 145 18 0 27 -7 32 -27z"/>
<path d="M4427 6974 c-4 -4 -7 -18 -7 -31 0 -18 5 -23 25 -23 l25 0 0 -145 c0
-138 -1 -145 -20 -145 -15 0 -20 -7 -20 -25 0 -24 2 -25 75 -25 73 0 75 1 75
25 0 18 -5 25 -20 25 -19 0 -20 8 -22 173 l-3 172 -50 3 c-28 2 -54 0 -58 -4z"/>
<path d="M2647 6424 c-4 -4 -7 -18 -7 -31 0 -18 5 -23 25 -23 l25 0 0 -145 c0
-138 -1 -145 -20 -145 -15 0 -20 -7 -20 -25 0 -24 2 -25 75 -25 73 0 75 1 75
25 0 18 -5 25 -20 25 -19 0 -20 8 -22 173 l-3 172 -50 3 c-28 2 -54 0 -58 -4z"/>
<path d="M3027 6424 c-4 -4 -7 -18 -7 -31 0 -18 5 -23 25 -23 l25 0 0 -145 c0
-138 -1 -145 -20 -145 -15 0 -20 -7 -20 -25 0 -24 2 -25 75 -25 72 0 75 1 75
24 0 15 -7 26 -20 29 -18 5 -20 15 -22 173 l-3 169 -50 3 c-28 2 -54 0 -58 -4z"/>
<path d="M3428 6410 c-40 -31 -60 -93 -59 -188 0 -99 25 -163 73 -188 93 -48
170 69 155 234 -13 131 -95 200 -169 142z m91 -77 c15 -52 13 -193 -2 -223
-16 -31 -46 -38 -64 -14 -16 22 -18 226 -3 255 6 11 21 19 35 19 19 0 26 -7
34 -37z"/>
<path d="M3808 6410 c-40 -31 -60 -93 -59 -188 0 -64 5 -93 21 -128 39 -79
113 -94 164 -33 50 59 59 224 17 307 -31 61 -96 80 -143 42z m91 -71 c15 -44
14 -198 -2 -229 -16 -31 -46 -38 -64 -14 -16 22 -18 226 -3 255 17 31 56 24
69 -12z"/>
<path d="M4188 6410 c-40 -31 -59 -92 -59 -187 0 -100 25 -164 73 -189 93 -48
171 70 154 235 -14 132 -94 199 -168 141z m91 -77 c15 -52 13 -193 -2 -223
-17 -34 -52 -38 -68 -8 -16 30 -16 215 0 246 7 13 21 22 36 22 19 0 26 -7 34
-37z"/>
<path d="M4547 6424 c-4 -4 -7 -18 -7 -31 0 -18 5 -23 25 -23 l25 0 0 -145 c0
-138 -1 -145 -20 -145 -15 0 -20 -7 -20 -25 0 -24 2 -25 75 -25 72 0 75 1 75
24 0 15 -7 26 -20 29 -18 5 -20 15 -22 173 l-3 169 -50 3 c-28 2 -54 0 -58 -4z"/>
<path d="M3371 5862 c-42 -44 -54 -87 -52 -195 2 -157 83 -245 174 -188 53 33
72 87 72 206 -1 143 -32 201 -114 212 -38 5 -44 3 -80 -35z m110 -62 c11 -41
10 -205 -2 -239 -9 -27 -16 -32 -38 -29 -20 2 -29 11 -38 38 -15 45 -16 158
-2 216 11 42 14 45 42 42 23 -2 33 -9 38 -28z"/>
<path d="M4116 5868 c-41 -41 -60 -100 -60 -188 0 -80 17 -140 50 -179 56 -67
146 -43 181 47 24 64 25 200 0 263 -23 59 -45 79 -96 86 -36 5 -44 2 -75 -29z
m103 -69 c6 -18 11 -71 11 -119 0 -108 -13 -150 -46 -150 -13 0 -28 9 -34 20
-17 32 -23 160 -11 223 12 53 14 57 41 57 22 0 30 -6 39 -31z"/>
<path d="M4475 5867 c-18 -18 -38 -52 -45 -75 -14 -54 -15 -168 0 -220 35
-133 169 -147 217 -24 27 70 25 211 -4 274 -37 82 -111 102 -168 45z m106 -67
c11 -41 10 -204 -2 -239 -9 -24 -17 -31 -38 -31 -25 0 -29 5 -39 51 -15 63
-15 133 -1 199 10 49 12 51 42 48 23 -2 33 -9 38 -28z"/>
<path d="M3000 5860 c0 -25 4 -30 25 -30 l25 0 0 -150 0 -150 -25 0 c-21 0
-25 -5 -25 -30 l0 -30 85 0 85 0 0 29 c0 23 -5 30 -22 33 -23 3 -23 5 -26 181
l-2 177 -60 0 c-60 0 -60 0 -60 -30z"/>
<path d="M3722 5863 c2 -22 9 -29 31 -31 l28 -3 -3 -147 c-3 -144 -3 -147 -25
-150 -18 -3 -23 -10 -23 -33 l0 -29 85 0 85 0 0 30 c0 25 -4 30 -25 30 l-25 0
0 180 0 180 -66 0 -65 0 3 -27z"/>
<path d="M3402 5334 c-51 -35 -77 -144 -60 -249 16 -101 67 -156 131 -139 88
21 127 216 68 337 -31 63 -91 85 -139 51z m89 -86 c14 -54 8 -211 -10 -232
-17 -20 -35 -20 -55 0 -13 12 -16 39 -16 125 0 121 8 149 45 149 20 0 26 -7
36 -42z"/>
<path d="M3748 5330 c-40 -31 -59 -92 -59 -187 0 -100 25 -164 73 -189 93 -48
170 69 155 234 -13 131 -95 200 -169 142z m91 -77 c12 -42 14 -154 5 -203 -5
-20 -16 -36 -32 -43 -41 -19 -52 9 -52 136 0 119 8 147 45 147 19 0 26 -7 34
-37z"/>
<path d="M4067 5344 c-4 -4 -7 -18 -7 -31 0 -18 5 -23 25 -23 l25 0 0 -141 c0
-132 -1 -141 -20 -146 -13 -3 -20 -14 -20 -29 0 -23 3 -24 75 -24 72 0 75 1
75 24 0 15 -7 26 -20 29 -18 5 -20 15 -22 173 l-3 169 -50 3 c-28 2 -54 0 -58
-4z"/>
<path d="M3448 3250 c-40 -31 -59 -92 -59 -185 0 -65 5 -94 22 -129 38 -81
111 -97 163 -35 50 59 59 224 17 307 -31 61 -96 80 -143 42z m93 -82 c14 -54
8 -211 -10 -232 -18 -22 -48 -20 -61 3 -5 11 -10 68 -10 126 0 117 9 145 45
145 20 0 26 -7 36 -42z"/>
<path d="M3802 3254 c-69 -48 -90 -242 -35 -335 38 -64 111 -73 157 -19 72 86
53 321 -29 358 -35 16 -66 15 -93 -4z m91 -94 c11 -60 2 -206 -13 -225 -17
-21 -47 -19 -60 4 -13 26 -13 227 1 252 7 14 19 19 37 17 23 -3 28 -9 35 -48z"/>
<path d="M3142 2724 c-50 -34 -77 -146 -60 -249 20 -129 101 -181 176 -112 54
50 68 227 24 314 -30 59 -93 80 -140 47z m88 -80 c16 -47 9 -216 -9 -238 -18
-22 -48 -20 -61 3 -5 11 -10 68 -10 126 0 117 9 145 45 145 18 0 26 -8 35 -36z"/>
<path d="M3447 2734 c-4 -4 -7 -18 -7 -31 0 -18 5 -23 25 -23 l25 0 0 -145 c0
-138 -1 -145 -20 -145 -15 0 -20 -7 -20 -25 0 -24 2 -25 75 -25 73 0 75 1 75
25 0 18 -5 25 -20 25 -19 0 -20 8 -22 173 l-3 172 -50 3 c-28 2 -54 0 -58 -4z"/>
<path d="M3791 2724 c-41 -29 -61 -89 -61 -188 0 -105 23 -167 72 -192 93 -48
170 69 155 234 -12 128 -92 198 -166 146z m88 -75 c15 -44 14 -198 -2 -229
-16 -31 -46 -38 -64 -14 -16 22 -18 226 -3 255 17 31 56 24 69 -12z"/>
<path d="M4097 2734 c-4 -4 -7 -18 -7 -31 0 -18 5 -23 25 -23 l25 0 0 -145 c0
-138 -1 -145 -20 -145 -15 0 -20 -7 -20 -25 0 -24 2 -25 75 -25 73 0 75 1 75
25 0 18 -5 25 -20 25 -19 0 -20 8 -22 173 l-3 172 -50 3 c-28 2 -54 0 -58 -4z"/>
<path d="M2713 2213 c-7 -3 -13 -18 -13 -34 0 -24 4 -29 25 -29 l25 0 0 -150
0 -150 -25 0 c-21 0 -25 -5 -25 -30 0 -24 4 -30 23 -31 12 0 33 -2 47 -4 14
-2 42 -1 63 2 33 5 37 9 37 34 0 21 -5 28 -22 31 -23 3 -23 5 -26 180 l-2 177
-33 5 c-35 5 -55 5 -74 -1z"/>
<path d="M3083 2213 c-7 -3 -13 -18 -13 -34 0 -24 4 -29 25 -29 l25 0 0 -150
0 -150 -25 0 c-21 0 -25 -5 -25 -29 0 -28 1 -28 69 -35 85 -7 101 -2 101 34 0
22 -5 29 -22 32 -23 3 -23 6 -28 182 l-5 178 -45 3 c-25 1 -51 0 -57 -2z"/>
<path d="M3469 2203 c-48 -29 -70 -94 -70 -202 0 -110 14 -155 61 -195 55 -46
124 -26 162 47 19 36 22 57 22 147 -1 75 -5 115 -17 142 -32 71 -100 97 -158
61z m91 -79 c14 -35 12 -218 -2 -249 -14 -31 -53 -34 -68 -4 -18 33 -24 158
-11 222 12 54 14 57 42 57 22 0 32 -6 39 -26z"/>
<path d="M3831 2188 c-39 -40 -53 -89 -53 -190 0 -100 23 -166 66 -196 40 -27
69 -28 111 -2 93 58 100 327 10 395 -47 36 -94 34 -134 -7z m110 -68 c11 -41
10 -204 -2 -239 -9 -24 -17 -31 -38 -31 -25 0 -29 5 -39 51 -15 63 -15 133 -1
199 10 49 12 51 42 48 23 -2 33 -9 38 -28z"/>
<path d="M4225 2209 c-25 -12 -59 -64 -69 -104 -23 -92 3 -260 46 -297 62 -54
154 -18 179 69 20 69 18 197 -4 255 -30 77 -90 107 -152 77z m86 -94 c8 -39 8
-191 0 -230 -8 -40 -53 -48 -72 -13 -15 26 -19 205 -6 251 7 24 12 28 40 25
26 -2 33 -8 38 -33z"/>
<path d="M4589 2203 c-48 -29 -70 -94 -70 -202 0 -110 14 -155 61 -195 55 -46
124 -26 162 47 19 36 22 57 22 147 -1 75 -5 115 -17 142 -32 71 -100 97 -158
61z m91 -79 c14 -35 12 -218 -2 -249 -14 -30 -53 -34 -68 -5 -17 32 -23 160
-11 223 12 54 14 57 42 57 22 0 32 -6 39 -26z"/>
</g>
</svg>
